<mxfile host="app.diagrams.net" modified="2023-10-27T11:55:43.044Z" agent="Mozilla/5.0 (Macintosh; Intel Mac OS X 10_15_7) AppleWebKit/537.36 (KHTML, like Gecko) Chrome/117.0.0.0 Safari/537.36" etag="bEXHO84comBlUqCjxVR2" version="21.6.9" type="github">
  <diagram name="Page-1" id="JzD9acYM8Otb4aDA_mBn">
    <mxGraphModel dx="1272" dy="723" grid="1" gridSize="11" guides="1" tooltips="1" connect="1" arrows="1" fold="1" page="1" pageScale="1" pageWidth="850" pageHeight="1100" math="0" shadow="0">
      <root>
        <mxCell id="0" />
        <mxCell id="1" parent="0" />
        <mxCell id="YrwI5r9iK0zWpG7Hj3L1-3" value="" style="ellipse;html=1;shape=startState;fillColor=#e1d5e7;strokeColor=#9673a6;" vertex="1" parent="1">
          <mxGeometry x="300" y="30" width="50" height="50" as="geometry" />
        </mxCell>
        <mxCell id="YrwI5r9iK0zWpG7Hj3L1-4" value="" style="edgeStyle=orthogonalEdgeStyle;html=1;verticalAlign=bottom;endArrow=open;endSize=8;strokeColor=#ff0000;rounded=0;entryX=0.5;entryY=0;entryDx=0;entryDy=0;strokeWidth=2;" edge="1" source="YrwI5r9iK0zWpG7Hj3L1-3" parent="1" target="YrwI5r9iK0zWpG7Hj3L1-12">
          <mxGeometry relative="1" as="geometry">
            <mxPoint x="325" y="170" as="targetPoint" />
          </mxGeometry>
        </mxCell>
        <mxCell id="YrwI5r9iK0zWpG7Hj3L1-60" value="submit application" style="edgeLabel;html=1;align=center;verticalAlign=middle;resizable=0;points=[];" vertex="1" connectable="0" parent="YrwI5r9iK0zWpG7Hj3L1-4">
          <mxGeometry x="-0.175" y="6" relative="1" as="geometry">
            <mxPoint as="offset" />
          </mxGeometry>
        </mxCell>
        <mxCell id="YrwI5r9iK0zWpG7Hj3L1-12" value="Loan Application Submission" style="rounded=1;whiteSpace=wrap;html=1;arcSize=40;fontColor=#000000;fillColor=#ffffc0;strokeColor=#ff0000;" vertex="1" parent="1">
          <mxGeometry x="265" y="160" width="120" height="40" as="geometry" />
        </mxCell>
        <mxCell id="YrwI5r9iK0zWpG7Hj3L1-13" value="" style="edgeStyle=orthogonalEdgeStyle;html=1;verticalAlign=bottom;endArrow=open;endSize=8;strokeColor=#ff0000;rounded=0;exitX=0.5;exitY=1;exitDx=0;exitDy=0;strokeWidth=2;entryX=0.5;entryY=0;entryDx=0;entryDy=0;" edge="1" source="YrwI5r9iK0zWpG7Hj3L1-12" parent="1" target="YrwI5r9iK0zWpG7Hj3L1-55">
          <mxGeometry relative="1" as="geometry">
            <mxPoint x="286" y="275" as="targetPoint" />
          </mxGeometry>
        </mxCell>
        <mxCell id="YrwI5r9iK0zWpG7Hj3L1-59" value="Application Review" style="edgeLabel;html=1;align=center;verticalAlign=middle;resizable=0;points=[];" vertex="1" connectable="0" parent="YrwI5r9iK0zWpG7Hj3L1-13">
          <mxGeometry x="-0.3768" relative="1" as="geometry">
            <mxPoint as="offset" />
          </mxGeometry>
        </mxCell>
        <mxCell id="YrwI5r9iK0zWpG7Hj3L1-18" value="Loan Approval" style="rounded=1;whiteSpace=wrap;html=1;arcSize=40;fontColor=#000000;fillColor=#ffffc0;strokeColor=#ff0000;" vertex="1" parent="1">
          <mxGeometry x="265" y="374" width="120" height="40" as="geometry" />
        </mxCell>
        <mxCell id="YrwI5r9iK0zWpG7Hj3L1-19" value="" style="edgeStyle=orthogonalEdgeStyle;html=1;verticalAlign=bottom;endArrow=open;endSize=8;strokeColor=#ff0000;rounded=0;entryX=0.5;entryY=0;entryDx=0;entryDy=0;" edge="1" source="YrwI5r9iK0zWpG7Hj3L1-18" parent="1" target="YrwI5r9iK0zWpG7Hj3L1-32">
          <mxGeometry relative="1" as="geometry">
            <mxPoint x="350" y="570" as="targetPoint" />
          </mxGeometry>
        </mxCell>
        <mxCell id="YrwI5r9iK0zWpG7Hj3L1-62" value="Disburse Loan" style="edgeLabel;html=1;align=center;verticalAlign=middle;resizable=0;points=[];" vertex="1" connectable="0" parent="YrwI5r9iK0zWpG7Hj3L1-19">
          <mxGeometry x="-0.2111" y="2" relative="1" as="geometry">
            <mxPoint as="offset" />
          </mxGeometry>
        </mxCell>
        <mxCell id="YrwI5r9iK0zWpG7Hj3L1-28" value="Loan Rejection" style="rounded=1;whiteSpace=wrap;html=1;arcSize=40;fontColor=#000000;fillColor=#ffffc0;strokeColor=#ff0000;" vertex="1" parent="1">
          <mxGeometry x="627" y="289" width="120" height="40" as="geometry" />
        </mxCell>
        <mxCell id="YrwI5r9iK0zWpG7Hj3L1-29" value="" style="edgeStyle=orthogonalEdgeStyle;html=1;verticalAlign=bottom;endArrow=open;endSize=8;strokeColor=#ff0000;rounded=0;exitX=0.5;exitY=1;exitDx=0;exitDy=0;entryX=1;entryY=0.5;entryDx=0;entryDy=0;" edge="1" source="YrwI5r9iK0zWpG7Hj3L1-28" parent="1" target="YrwI5r9iK0zWpG7Hj3L1-67">
          <mxGeometry relative="1" as="geometry">
            <mxPoint x="594" y="902" as="targetPoint" />
            <Array as="points">
              <mxPoint x="687" y="851" />
            </Array>
          </mxGeometry>
        </mxCell>
        <mxCell id="YrwI5r9iK0zWpG7Hj3L1-32" value="Loan Disbursement" style="rounded=1;whiteSpace=wrap;html=1;arcSize=40;fontColor=#000000;fillColor=#ffffc0;strokeColor=#ff0000;" vertex="1" parent="1">
          <mxGeometry x="265" y="462" width="120" height="40" as="geometry" />
        </mxCell>
        <mxCell id="YrwI5r9iK0zWpG7Hj3L1-33" value="" style="edgeStyle=orthogonalEdgeStyle;html=1;verticalAlign=bottom;endArrow=open;endSize=8;strokeColor=#ff0000;rounded=0;entryX=0.5;entryY=0;entryDx=0;entryDy=0;" edge="1" source="YrwI5r9iK0zWpG7Hj3L1-32" parent="1" target="YrwI5r9iK0zWpG7Hj3L1-35">
          <mxGeometry relative="1" as="geometry">
            <mxPoint x="325" y="620" as="targetPoint" />
          </mxGeometry>
        </mxCell>
        <mxCell id="YrwI5r9iK0zWpG7Hj3L1-63" value="Repay Loan" style="edgeLabel;html=1;align=center;verticalAlign=middle;resizable=0;points=[];" vertex="1" connectable="0" parent="YrwI5r9iK0zWpG7Hj3L1-33">
          <mxGeometry x="-0.1889" y="-1" relative="1" as="geometry">
            <mxPoint as="offset" />
          </mxGeometry>
        </mxCell>
        <mxCell id="YrwI5r9iK0zWpG7Hj3L1-35" value="Loan Repayment" style="rounded=1;whiteSpace=wrap;html=1;arcSize=40;fontColor=#000000;fillColor=#ffffc0;strokeColor=#ff0000;" vertex="1" parent="1">
          <mxGeometry x="265" y="550" width="120" height="40" as="geometry" />
        </mxCell>
        <mxCell id="YrwI5r9iK0zWpG7Hj3L1-36" value="" style="edgeStyle=orthogonalEdgeStyle;html=1;verticalAlign=bottom;endArrow=open;endSize=8;strokeColor=#ff0000;rounded=0;exitX=0.25;exitY=1;exitDx=0;exitDy=0;entryX=0.5;entryY=0;entryDx=0;entryDy=0;" edge="1" source="YrwI5r9iK0zWpG7Hj3L1-35" parent="1" target="YrwI5r9iK0zWpG7Hj3L1-38">
          <mxGeometry relative="1" as="geometry">
            <mxPoint x="180" y="690" as="targetPoint" />
            <Array as="points">
              <mxPoint x="295" y="605" />
            </Array>
          </mxGeometry>
        </mxCell>
        <mxCell id="YrwI5r9iK0zWpG7Hj3L1-64" value="Loan Fully Repaid" style="edgeLabel;html=1;align=center;verticalAlign=middle;resizable=0;points=[];" vertex="1" connectable="0" parent="YrwI5r9iK0zWpG7Hj3L1-36">
          <mxGeometry x="0.0857" y="1" relative="1" as="geometry">
            <mxPoint as="offset" />
          </mxGeometry>
        </mxCell>
        <mxCell id="YrwI5r9iK0zWpG7Hj3L1-38" value="Loan Closure" style="rounded=1;whiteSpace=wrap;html=1;arcSize=40;fontColor=#000000;fillColor=#ffffc0;strokeColor=#ff0000;" vertex="1" parent="1">
          <mxGeometry x="110" y="627" width="120" height="40" as="geometry" />
        </mxCell>
        <mxCell id="YrwI5r9iK0zWpG7Hj3L1-39" value="" style="edgeStyle=orthogonalEdgeStyle;html=1;verticalAlign=bottom;endArrow=open;endSize=8;strokeColor=#ff0000;rounded=0;exitX=0.5;exitY=1;exitDx=0;exitDy=0;entryX=0;entryY=0.5;entryDx=0;entryDy=0;" edge="1" parent="1" target="YrwI5r9iK0zWpG7Hj3L1-67">
          <mxGeometry relative="1" as="geometry">
            <mxPoint x="421" y="921" as="targetPoint" />
            <mxPoint x="170" y="660" as="sourcePoint" />
            <Array as="points">
              <mxPoint x="170" y="851" />
            </Array>
          </mxGeometry>
        </mxCell>
        <mxCell id="YrwI5r9iK0zWpG7Hj3L1-41" value="Default/Non-Payment" style="rounded=1;whiteSpace=wrap;html=1;arcSize=40;fontColor=#000000;fillColor=#ffffc0;strokeColor=#ff0000;" vertex="1" parent="1">
          <mxGeometry x="407" y="616" width="150" height="40" as="geometry" />
        </mxCell>
        <mxCell id="YrwI5r9iK0zWpG7Hj3L1-42" value="" style="edgeStyle=orthogonalEdgeStyle;html=1;verticalAlign=bottom;endArrow=open;endSize=8;strokeColor=#ff0000;rounded=0;entryX=0.5;entryY=0;entryDx=0;entryDy=0;" edge="1" source="YrwI5r9iK0zWpG7Hj3L1-41" parent="1" target="YrwI5r9iK0zWpG7Hj3L1-43">
          <mxGeometry relative="1" as="geometry">
            <mxPoint x="520" y="820" as="targetPoint" />
          </mxGeometry>
        </mxCell>
        <mxCell id="YrwI5r9iK0zWpG7Hj3L1-51" value="Collections/Recovery" style="edgeLabel;html=1;align=center;verticalAlign=middle;resizable=0;points=[];" vertex="1" connectable="0" parent="YrwI5r9iK0zWpG7Hj3L1-42">
          <mxGeometry x="-0.2205" y="-5" relative="1" as="geometry">
            <mxPoint as="offset" />
          </mxGeometry>
        </mxCell>
        <mxCell id="YrwI5r9iK0zWpG7Hj3L1-43" value="Collections/Recovery" style="rounded=1;whiteSpace=wrap;html=1;arcSize=40;fontColor=#000000;fillColor=#ffffc0;strokeColor=#ff0000;" vertex="1" parent="1">
          <mxGeometry x="451" y="715" width="120" height="40" as="geometry" />
        </mxCell>
        <mxCell id="YrwI5r9iK0zWpG7Hj3L1-44" value="" style="edgeStyle=orthogonalEdgeStyle;html=1;verticalAlign=bottom;endArrow=open;endSize=8;strokeColor=#ff0000;rounded=0;entryX=0.5;entryY=0;entryDx=0;entryDy=0;" edge="1" source="YrwI5r9iK0zWpG7Hj3L1-43" parent="1" target="YrwI5r9iK0zWpG7Hj3L1-67">
          <mxGeometry relative="1" as="geometry">
            <mxPoint x="429" y="792" as="targetPoint" />
            <Array as="points">
              <mxPoint x="499" y="770" />
              <mxPoint x="499" y="770" />
            </Array>
          </mxGeometry>
        </mxCell>
        <mxCell id="YrwI5r9iK0zWpG7Hj3L1-49" value="" style="edgeStyle=orthogonalEdgeStyle;html=1;verticalAlign=bottom;endArrow=open;endSize=8;strokeColor=#ff0000;rounded=0;exitX=0.669;exitY=1.008;exitDx=0;exitDy=0;exitPerimeter=0;entryX=0.5;entryY=0;entryDx=0;entryDy=0;" edge="1" parent="1" source="YrwI5r9iK0zWpG7Hj3L1-35" target="YrwI5r9iK0zWpG7Hj3L1-41">
          <mxGeometry relative="1" as="geometry">
            <mxPoint x="341" y="907" as="targetPoint" />
            <mxPoint x="401" y="737" as="sourcePoint" />
          </mxGeometry>
        </mxCell>
        <mxCell id="YrwI5r9iK0zWpG7Hj3L1-65" value="Default/Non-Payment" style="edgeLabel;html=1;align=center;verticalAlign=middle;resizable=0;points=[];" vertex="1" connectable="0" parent="YrwI5r9iK0zWpG7Hj3L1-49">
          <mxGeometry x="0.0463" y="3" relative="1" as="geometry">
            <mxPoint as="offset" />
          </mxGeometry>
        </mxCell>
        <mxCell id="YrwI5r9iK0zWpG7Hj3L1-55" value="Application Review" style="rounded=1;whiteSpace=wrap;html=1;arcSize=40;fontColor=#000000;fillColor=#ffffc0;strokeColor=#ff0000;" vertex="1" parent="1">
          <mxGeometry x="270" y="286" width="120" height="40" as="geometry" />
        </mxCell>
        <mxCell id="YrwI5r9iK0zWpG7Hj3L1-56" value="" style="edgeStyle=orthogonalEdgeStyle;html=1;verticalAlign=bottom;endArrow=open;endSize=8;strokeColor=#ff0000;rounded=0;entryX=0.5;entryY=0;entryDx=0;entryDy=0;" edge="1" source="YrwI5r9iK0zWpG7Hj3L1-55" parent="1" target="YrwI5r9iK0zWpG7Hj3L1-18">
          <mxGeometry relative="1" as="geometry">
            <mxPoint x="330" y="386" as="targetPoint" />
          </mxGeometry>
        </mxCell>
        <mxCell id="YrwI5r9iK0zWpG7Hj3L1-58" value="Loan Approved" style="edgeLabel;html=1;align=center;verticalAlign=middle;resizable=0;points=[];" vertex="1" connectable="0" parent="YrwI5r9iK0zWpG7Hj3L1-56">
          <mxGeometry x="0.021" y="-1" relative="1" as="geometry">
            <mxPoint as="offset" />
          </mxGeometry>
        </mxCell>
        <mxCell id="YrwI5r9iK0zWpG7Hj3L1-57" value="" style="edgeStyle=orthogonalEdgeStyle;html=1;align=left;verticalAlign=bottom;endArrow=open;endSize=8;strokeColor=#ff0000;rounded=0;exitX=1;exitY=0.5;exitDx=0;exitDy=0;entryX=0;entryY=0.5;entryDx=0;entryDy=0;" edge="1" parent="1" source="YrwI5r9iK0zWpG7Hj3L1-55" target="YrwI5r9iK0zWpG7Hj3L1-28">
          <mxGeometry x="-1" relative="1" as="geometry">
            <mxPoint x="440" y="374" as="targetPoint" />
            <mxPoint x="178" y="385" as="sourcePoint" />
            <mxPoint as="offset" />
          </mxGeometry>
        </mxCell>
        <mxCell id="YrwI5r9iK0zWpG7Hj3L1-66" value="Loan Rejected" style="edgeLabel;html=1;align=center;verticalAlign=middle;resizable=0;points=[];" vertex="1" connectable="0" parent="YrwI5r9iK0zWpG7Hj3L1-57">
          <mxGeometry x="0.0032" y="-2" relative="1" as="geometry">
            <mxPoint x="-1" as="offset" />
          </mxGeometry>
        </mxCell>
        <mxCell id="YrwI5r9iK0zWpG7Hj3L1-67" value="" style="ellipse;html=1;shape=endState;fillColor=#e1d5e7;strokeColor=#9673a6;" vertex="1" parent="1">
          <mxGeometry x="484" y="836" width="30" height="30" as="geometry" />
        </mxCell>
      </root>
    </mxGraphModel>
  </diagram>
</mxfile>
